<svg width="48" height="48" viewBox="0 0 48 48" fill="none" xmlns="http://www.w3.org/2000/svg">
<path d="M24 4.32373C30.4084 4.32373 31.1674 4.34773 33.6983 4.46333C36.0386 4.57008 37.3093 4.96064 38.155 5.28955C39.2757 5.72523 40.0749 6.24462 40.9147 7.08449C41.7544 7.92435 42.275 8.72369 42.7097 9.84428C43.0386 10.6899 43.4291 11.9606 43.5359 14.3009C43.6513 16.8318 43.6755 17.5906 43.6755 23.9992C43.6755 30.4078 43.6515 31.1665 43.5359 33.6974C43.4291 36.0376 43.0386 37.3084 42.7097 38.154C42.274 39.2748 41.7546 40.0739 40.9147 40.9138C40.0749 41.7535 39.2755 42.274 38.155 42.7087C37.3093 43.0376 36.0386 43.4282 33.6983 43.5349C31.1676 43.6503 30.4086 43.6745 24 43.6745C17.5914 43.6745 16.8328 43.6505 14.3018 43.5349C11.9616 43.4282 10.6909 43.0376 9.84524 42.7087C8.72446 42.2729 7.92531 41.7535 7.08545 40.9138C6.24578 40.0739 5.72523 39.2746 5.29051 38.154C4.96141 37.3084 4.57104 36.0376 4.46429 33.6974C4.34889 31.1667 4.32469 30.4076 4.32469 23.9992C4.32469 17.5908 4.34869 16.832 4.46429 14.3009C4.57104 11.9606 4.9616 10.6899 5.29051 9.84428C5.72619 8.7235 6.24558 7.92435 7.08545 7.08449C7.92531 6.24482 8.72465 5.72427 9.84524 5.28955C10.6909 4.96064 11.9616 4.57008 14.3018 4.46333C16.8326 4.34889 17.5916 4.32373 24 4.32373ZM24 0C17.482 0 16.6644 0.0278418 14.1046 0.144201C11.5497 0.260561 9.80568 0.666667 8.27919 1.25998C6.70065 1.87366 5.36271 2.69432 4.02842 4.02842C2.69432 5.36271 1.87289 6.70065 1.25998 8.27919C0.666475 9.80588 0.260561 11.5507 0.144201 14.1046C0.0278418 16.6646 0 17.4821 0 24C0 30.5179 0.0278418 31.3356 0.144201 33.8954C0.260561 36.4503 0.666667 38.1943 1.25998 39.7208C1.87366 41.2993 2.69432 42.6373 4.02842 43.9716C5.36271 45.3059 6.70161 46.1263 8.27919 46.74C9.80588 47.3335 11.5507 47.7394 14.1046 47.8558C16.6644 47.9722 17.482 48 24 48C30.518 48 31.3356 47.9722 33.8954 47.8558C36.4503 47.7394 38.1943 47.3333 39.7208 46.74C41.2993 46.1261 42.6373 45.3057 43.9716 43.9716C45.3059 42.6373 46.1263 41.2984 46.74 39.7208C47.3335 38.1943 47.7394 36.4493 47.8558 33.8954C47.9722 31.3356 48 30.518 48 24C48 17.482 47.9722 16.6644 47.8558 14.1046C47.7394 11.5497 47.3333 9.80568 46.74 8.27919C46.1261 6.70065 45.3057 5.36271 43.9716 4.02842C42.6373 2.69432 41.2984 1.87366 39.7208 1.25998C38.1943 0.666475 36.4493 0.260561 33.8954 0.144201C31.3358 0.0278418 30.518 0 24 0ZM24 11.6759C17.1934 11.6759 11.6759 17.1934 11.6759 24C11.6759 30.8066 17.1934 36.3243 24 36.3243C30.8066 36.3243 36.3243 30.8066 36.3243 24C36.3243 17.1934 30.8066 11.6759 24 11.6759ZM24 32.0006C19.582 32.0006 15.9996 28.4194 15.9996 24.0002C15.9996 19.581 19.582 15.9998 24 15.9998C28.418 15.9998 32.0004 19.581 32.0004 24.0002C32.0004 28.4194 28.418 32.0006 24 32.0006ZM36.8111 8.30914C35.22 8.30914 33.9311 9.59812 33.9311 11.1891C33.9311 12.7801 35.22 14.0693 36.8111 14.0693C38.4021 14.0693 39.6912 12.7801 39.6912 11.1891C39.6912 9.59812 38.4023 8.30914 36.8111 8.30914Z" fill="white"/>
</svg>
