<svg width="48" height="48" viewBox="0 0 48 48" fill="none" xmlns="http://www.w3.org/2000/svg">
<path d="M38.6072 9.62119C36.021 7.93559 34.156 5.23741 33.5733 2.09376C33.448 1.4147 33.3782 0.715178 33.3782 0H25.126L25.1127 33.0716C24.9743 36.7751 21.9257 39.7478 18.1897 39.7478C17.0278 39.7478 15.9346 39.4576 14.9714 38.9507C12.7633 37.7888 11.2522 35.4748 11.2522 32.8115C11.2522 28.9864 14.3646 25.874 18.1885 25.874C18.9025 25.874 19.5876 25.992 20.2353 26.1943V17.7699C19.5647 17.6784 18.8832 17.6218 18.1885 17.6218C9.81346 17.6218 3 24.4352 3 32.8115C3 37.9502 5.56694 42.4977 9.48476 45.2476C11.9518 46.9802 14.9533 48 18.1897 48C26.5648 48 33.3782 41.1865 33.3782 32.8115V16.0409C36.6146 18.3635 40.5806 19.7324 44.8596 19.7324V11.4802C42.5551 11.4802 40.4084 10.7951 38.6072 9.62119Z" fill="white"/>
</svg>
